<?xml version="1.0"?>
<!DOCTYPE svg PUBLIC "-//W3C//DTD SVG 1.1//EN" "http://www.w3.org/Graphics/SVG/1.1/DTD/svg11.dtd">
<svg width="512px" height="512px" viewBox="0 0 512 512" xmlns="http://www.w3.org/2000/svg" version="1.1">
<desc>UV-Map from Object: Backpack. Exported from Blender3D with UV Exportscript</desc>
<rect x="0" y="0" width="512" height="512" fill="none" stroke="blue" stroke-width="1px" />
<g style="fill:#F2DAF2; stroke:black; stroke-width:1px;">
<polygon points="303.739,166.200 200.199,166.200 200.199,184.766 303.739,184.766 " />
<polygon points="303.739,256.394 303.739,184.766 200.199,184.766 200.199,256.394 " />
<polygon points="303.739,184.766 303.739,256.394 353.863,256.757 353.874,187.602 " />
<polygon points="353.874,187.602 353.863,256.757 399.027,253.113 399.027,189.718 " />
<polygon points="200.199,256.394 185.063,258.724 185.063,310.703 200.199,310.703 " />
<polygon points="318.703,258.724 303.739,256.394 303.739,310.703 318.703,310.703 " />
<polygon points="303.739,256.394 200.199,256.394 200.199,310.703 303.739,310.703 " />
<polygon points="303.739,310.703 200.199,310.703 200.199,351.636 303.739,351.636 " />
<polygon points="200.199,400.360 303.739,400.360 303.739,366.905 200.199,366.905 " />
<polygon points="208.440,67.168 208.440,35.848 169.260,35.848 169.260,67.168 " />
<polygon points="208.440,78.691 208.440,67.168 169.260,67.168 169.260,78.691 " />
<polygon points="208.440,107.203 208.440,78.691 169.260,78.691 169.260,107.203 " />
<polygon points="208.440,118.147 208.440,107.203 169.260,107.203 169.260,118.147 " />
<polygon points="169.260,118.147 169.260,107.203 128.879,107.203 128.879,118.147 " />
<polygon points="169.260,107.203 169.260,78.691 128.879,78.691 128.879,107.203 " />
<polygon points="169.260,78.691 169.260,67.168 128.879,67.168 128.879,78.691 " />
<polygon points="169.260,67.168 169.260,35.848 128.879,35.848 128.879,67.168 " />
<polygon points="277.498,67.461 277.498,78.984 315.143,78.984 315.143,67.461 " />
<polygon points="277.498,36.140 277.498,67.461 315.143,67.461 315.143,36.140 " />
<polygon points="277.498,78.984 277.498,107.496 315.143,107.496 315.143,78.984 " />
<polygon points="277.498,107.496 277.498,118.440 315.143,118.440 315.143,107.496 " />
<polygon points="315.143,107.496 315.143,118.440 356.469,118.440 356.469,107.496 " />
<polygon points="315.143,78.984 315.143,107.496 356.469,107.496 356.469,78.984 " />
<polygon points="315.143,36.140 315.143,67.461 356.469,67.461 356.469,36.140 " />
<polygon points="315.143,67.461 315.143,78.984 356.469,78.984 356.469,67.461 " />
<polygon points="303.739,351.636 200.199,351.636 200.199,366.905 303.739,366.905 " />
<polygon points="356.469,67.461 356.469,78.984 396.850,78.984 396.850,67.461 " />
<polygon points="356.469,36.140 356.469,67.461 396.850,67.461 396.850,36.140 " />
<polygon points="356.469,78.984 356.469,107.496 396.850,107.496 396.850,78.984 " />
<polygon points="356.469,107.496 356.469,118.440 396.850,118.440 396.850,107.496 " />
<polygon points="128.879,67.168 128.879,35.848 87.553,35.848 87.553,67.168 " />
<polygon points="128.879,78.691 128.879,67.168 87.553,67.168 87.553,78.691 " />
<polygon points="128.879,107.203 128.879,78.691 87.553,78.691 87.553,107.203 " />
<polygon points="128.879,118.147 128.879,107.203 87.553,107.203 87.553,118.147 " />
<polygon points="396.850,67.461 396.850,78.984 436.031,78.984 436.031,67.461 " />
<polygon points="396.850,36.140 396.850,67.461 436.031,67.461 436.031,36.140 " />
<polygon points="396.850,78.984 396.850,107.496 436.031,107.496 436.031,78.984 " />
<polygon points="396.850,107.496 396.850,118.440 436.031,118.440 436.031,107.496 " />
<polygon points="87.553,118.147 87.553,107.203 49.907,107.203 49.907,118.147 " />
<polygon points="87.553,107.203 87.553,78.691 49.907,78.691 49.907,107.203 " />
<polygon points="87.553,78.691 87.553,67.168 49.907,67.168 49.907,78.691 " />
<polygon points="87.553,67.168 87.553,35.848 49.907,35.848 49.907,67.168 " />
<polygon points="226.904,78.366 226.904,107.472 260.059,107.472 260.059,78.366 " />
<polygon points="226.904,65.053 260.059,65.053 260.059,35.983 226.904,35.983 " />
<polygon points="226.904,107.472 226.904,120.261 260.059,120.261 260.059,107.472 " />
<polygon points="226.904,65.053 226.904,78.366 260.059,78.366 260.059,65.053 " />
<polygon points="474.938,329.926 499.097,329.926 499.097,356.566 474.938,356.566 " />
<polygon points="474.938,356.566 499.097,356.566 499.097,385.171 474.938,385.171 " />
<polygon points="474.938,385.171 499.097,385.171 499.097,413.117 474.938,413.117 " />
<polygon points="474.938,413.117 499.097,413.117 499.097,439.609 474.938,439.609 " />
<polygon points="474.938,439.609 499.097,439.609 499.097,465.316 474.938,465.316 " />
<polygon points="474.938,465.316 499.097,465.316 499.097,493.001 474.938,493.001 " />
<polygon points="412.552,253.113 412.552,189.718 399.027,189.718 399.027,253.113 " />
<polygon points="91.709,253.113 104.912,253.113 104.912,189.718 91.709,189.718 " />
<polygon points="469.736,465.316 469.736,493.001 445.577,493.001 445.577,465.316 " />
<polygon points="469.736,439.609 469.736,465.316 445.577,465.316 445.577,439.609 " />
<polygon points="469.736,413.117 469.736,439.609 445.577,439.609 445.577,413.117 " />
<polygon points="469.736,385.171 469.736,413.117 445.577,413.117 445.577,385.171 " />
<polygon points="469.736,356.566 469.736,385.171 445.577,385.171 445.577,356.566 " />
<polygon points="469.736,329.926 469.736,356.566 445.577,356.566 445.577,329.926 " />
<polygon points="149.377,187.602 104.912,189.718 104.912,253.113 149.377,256.757 " />
<polygon points="200.199,184.766 149.377,187.602 149.377,256.757 200.199,256.394 " />
<polygon points="150.612,293.755 48.122,293.756 48.122,328.589 150.612,328.589 " />
<polygon points="48.122,494.874 150.612,494.874 150.612,448.572 48.122,448.572 " />
<polygon points="509.193,256.394 457.317,256.757 457.317,269.617 509.193,269.304 " />
<polygon points="412.552,253.113 412.552,265.649 457.317,269.617 457.317,256.757 " />
<polygon points="412.552,253.113 457.317,256.757 457.317,187.602 412.552,189.718 " />
<polygon points="509.193,256.394 509.193,184.766 457.317,187.602 457.317,256.757 " />
<polygon points="48.122,448.572 150.612,448.572 150.612,396.061 48.122,396.061 " />
<polygon points="150.612,328.589 48.122,328.589 48.122,396.061 150.612,396.061 " />
<polygon points="10.970,396.061 48.122,396.061 48.122,328.589 10.970,328.589 " />
<polygon points="186.967,328.589 150.612,328.589 150.612,396.061 186.967,396.061 " />
<polygon points="186.967,448.572 186.967,396.061 150.612,396.061 150.612,448.572 " />
<polygon points="10.970,396.061 10.970,448.572 48.122,448.572 48.122,396.061 " />
<polygon points="457.317,174.954 412.552,177.190 412.552,189.718 457.317,187.602 " />
<polygon points="509.193,184.766 509.193,172.989 457.317,174.954 457.317,187.602 " />
<polygon points="1.520,184.766 1.520,256.394 49.197,256.757 49.197,187.602 " />
<polygon points="91.709,189.718 49.197,187.602 49.197,256.757 91.709,253.113 " />
<polygon points="49.197,269.617 49.197,256.757 1.520,256.394 1.520,269.304 " />
<polygon points="91.709,265.649 91.709,253.113 49.197,256.757 49.197,269.617 " />
<polygon points="91.709,177.190 49.197,174.954 49.197,187.602 91.709,189.718 " />
<polygon points="49.197,174.954 1.520,172.989 1.520,184.766 49.197,187.602 " />
</g>
</svg>