<?xml version="1.0"?>
<!DOCTYPE svg PUBLIC "-//W3C//DTD SVG 1.1//EN" "http://www.w3.org/Graphics/SVG/1.1/DTD/svg11.dtd">
<svg width="512px" height="512px" viewBox="0 0 512 512" xmlns="http://www.w3.org/2000/svg" version="1.1">
<desc>UV-Map from Object: Elev. Exported from Blender3D with UV Exportscript</desc>
<rect x="0" y="0" width="512" height="512" fill="none" stroke="blue" stroke-width="1px" />
<g style="fill:#F2DAF2; stroke:black; stroke-width:1px;">
<polygon points="287.736,42.827 287.736,32.782 131.790,42.827 " />
<polygon points="131.790,32.270 287.736,32.782 287.736,23.773 " />
<polygon points="287.736,14.723 131.790,14.218 131.790,23.260 " />
<polygon points="131.790,14.218 287.736,14.723 287.736,3.201 " />
<polygon points="131.790,42.827 287.736,32.782 131.790,32.270 " />
<polygon points="131.790,23.260 131.790,32.270 287.736,23.773 " />
<polygon points="287.736,23.773 287.736,14.723 131.790,23.260 " />
<polygon points="131.790,3.737 131.790,14.218 287.736,3.201 " />
<polygon points="494.546,506.466 508.200,506.466 507.836,2.861 " />
<polygon points="494.546,506.466 494.182,2.861 480.799,2.861 " />
<polygon points="480.799,2.861 468.725,2.861 468.039,506.466 " />
<polygon points="455.024,2.861 455.024,506.466 468.039,506.466 " />
<polygon points="494.182,2.861 494.546,506.466 507.836,2.861 " />
<polygon points="480.113,506.466 494.546,506.466 480.799,2.861 " />
<polygon points="480.113,506.466 480.799,2.861 468.039,506.466 " />
<polygon points="468.725,2.861 455.024,2.861 468.039,506.466 " />
<polygon points="494.501,506.478 508.155,506.478 507.792,2.873 " />
<polygon points="494.501,506.478 494.138,2.873 480.755,2.873 " />
<polygon points="480.755,2.873 468.680,2.873 467.994,506.478 " />
<polygon points="454.979,2.873 454.979,506.478 467.994,506.478 " />
<polygon points="494.138,2.873 494.501,506.478 507.792,2.873 " />
<polygon points="480.069,506.478 494.501,506.478 480.755,2.873 " />
<polygon points="480.069,506.478 480.755,2.873 467.994,506.478 " />
<polygon points="468.680,2.873 454.979,2.873 467.994,506.478 " />
<polygon points="137.770,60.167 171.777,60.254 171.777,49.212 " />
<polygon points="171.777,60.253 137.770,60.166 137.770,49.124 " />
<polygon points="168.645,99.943 152.184,101.015 152.186,109.747 " />
<polygon points="140.524,100.973 124.056,100.104 124.056,110.897 " />
<polygon points="137.770,60.164 171.777,60.253 171.777,49.211 " />
<polygon points="152.184,101.015 140.524,100.973 140.451,109.747 " />
<polygon points="171.777,60.254 137.770,60.167 137.770,49.124 " />
<polygon points="171.777,60.252 137.770,60.164 137.770,49.123 " />
<polygon points="168.645,99.943 152.184,101.015 152.186,109.747 " />
<polygon points="140.524,100.973 124.056,100.104 124.056,110.897 " />
<polygon points="137.770,60.167 171.777,60.254 171.777,49.211 " />
<polygon points="152.184,101.015 140.524,100.973 140.451,109.747 " />
<polygon points="137.770,60.166 171.777,60.254 171.777,49.212 " />
<polygon points="171.777,60.254 137.770,60.167 137.770,49.124 " />
<polygon points="168.645,99.943 152.184,101.015 152.186,109.747 " />
<polygon points="140.524,100.973 124.056,100.104 124.056,110.897 " />
<polygon points="137.770,49.124 137.770,60.167 171.777,49.212 " />
<polygon points="171.777,49.211 171.777,60.253 137.770,49.124 " />
<polygon points="137.770,49.123 137.770,60.164 171.777,49.211 " />
<polygon points="171.777,49.212 171.777,60.254 137.770,49.124 " />
<polygon points="171.777,49.210 171.777,60.252 137.770,49.123 " />
<polygon points="137.770,49.124 137.770,60.167 171.777,49.211 " />
<polygon points="137.770,49.124 137.770,60.166 171.777,49.212 " />
<polygon points="171.777,49.212 171.777,60.254 137.770,49.124 " />
<polygon points="270.357,104.121 261.255,112.596 261.567,124.804 " />
<polygon points="261.255,112.596 252.662,94.735 246.663,88.824 " />
<polygon points="252.662,94.735 270.357,104.121 282.643,103.727 " />
<polygon points="219.092,94.763 219.535,82.333 210.683,73.921 " />
<polygon points="219.535,82.333 238.242,88.887 246.663,88.824 " />
<polygon points="238.242,88.887 219.092,94.763 210.683,103.728 " />
<polygon points="274.234,82.886 273.791,95.315 282.643,103.727 " />
<polygon points="273.791,95.315 255.084,88.761 246.663,88.824 " />
<polygon points="255.084,88.761 274.234,82.886 282.643,73.921 " />
<polygon points="261.959,65.130 270.435,74.232 282.643,73.921 " />
<polygon points="270.435,74.232 252.573,82.825 246.663,88.824 " />
<polygon points="252.573,82.825 261.959,65.130 261.566,52.844 " />
<polygon points="231.367,112.519 222.891,103.417 210.683,103.728 " />
<polygon points="222.891,103.417 240.753,94.824 246.663,88.824 " />
<polygon points="240.753,94.824 231.367,112.519 231.760,124.805 " />
<polygon points="240.725,61.253 253.154,61.697 261.566,52.844 " />
<polygon points="253.154,61.697 246.600,80.403 246.663,88.824 " />
<polygon points="246.600,80.403 240.725,61.253 231.759,52.844 " />
<polygon points="222.968,73.528 232.071,65.052 231.759,52.844 " />
<polygon points="232.071,65.052 240.664,82.914 246.663,88.824 " />
<polygon points="240.664,82.914 222.968,73.528 210.683,73.921 " />
<polygon points="252.601,116.395 240.172,115.952 231.760,124.805 " />
<polygon points="240.172,115.952 246.726,97.246 246.663,88.824 " />
<polygon points="246.726,97.246 252.601,116.395 261.567,124.804 " />
<polygon points="152.184,101.015 140.524,100.973 140.451,109.747 " />
<polygon points="168.645,99.943 152.184,101.015 152.186,109.747 " />
<polygon points="140.524,100.973 124.056,100.104 124.056,110.897 " />
<polygon points="152.184,101.015 140.524,100.973 140.451,109.747 " />
<polygon points="168.645,99.943 152.184,101.015 152.186,109.747 " />
<polygon points="140.524,100.973 124.056,100.104 124.056,110.897 " />
<polygon points="152.184,101.015 140.524,100.973 140.451,109.747 " />
<polygon points="168.645,99.943 152.184,101.015 152.186,109.747 " />
<polygon points="140.524,100.973 124.056,100.104 124.056,110.897 " />
<polygon points="152.184,101.015 140.524,100.973 140.451,109.747 " />
<polygon points="168.645,99.943 152.184,101.015 152.186,109.747 " />
<polygon points="140.524,100.973 124.056,100.104 124.056,110.897 " />
<polygon points="152.184,101.015 140.524,100.973 140.451,109.747 " />
<polygon points="168.645,99.943 152.184,101.015 152.186,109.747 " />
<polygon points="140.524,100.973 124.056,100.104 124.056,110.897 " />
<polygon points="152.184,101.015 140.524,100.973 140.451,109.747 " />
<polygon points="168.645,110.775 168.645,99.943 152.186,109.747 " />
<polygon points="140.451,109.747 140.524,100.973 124.056,110.897 " />
<polygon points="152.186,109.747 152.184,101.015 140.451,109.747 " />
<polygon points="168.645,110.775 168.645,99.943 152.186,109.747 " />
<polygon points="140.451,109.747 140.524,100.973 124.056,110.897 " />
<polygon points="152.186,109.747 152.184,101.015 140.451,109.747 " />
<polygon points="168.645,110.775 168.645,99.943 152.186,109.747 " />
<polygon points="140.451,109.747 140.524,100.973 124.056,110.897 " />
<polygon points="282.643,103.727 270.357,104.121 261.567,124.804 " />
<polygon points="261.567,124.804 261.255,112.596 246.663,88.824 " />
<polygon points="246.663,88.824 252.662,94.735 282.643,103.727 " />
<polygon points="210.683,103.728 219.092,94.763 210.683,73.921 " />
<polygon points="210.683,73.921 219.535,82.333 246.663,88.824 " />
<polygon points="246.663,88.824 238.242,88.887 210.683,103.728 " />
<polygon points="282.643,73.921 274.234,82.886 282.643,103.727 " />
<polygon points="282.643,103.727 273.791,95.315 246.663,88.824 " />
<polygon points="246.663,88.824 255.084,88.761 282.643,73.921 " />
<polygon points="261.566,52.844 261.959,65.130 282.643,73.921 " />
<polygon points="282.643,73.921 270.435,74.232 246.663,88.824 " />
<polygon points="246.663,88.824 252.573,82.825 261.566,52.844 " />
<polygon points="231.760,124.805 231.367,112.519 210.683,103.728 " />
<polygon points="210.683,103.728 222.891,103.417 246.663,88.824 " />
<polygon points="246.663,88.824 240.753,94.824 231.760,124.805 " />
<polygon points="231.759,52.844 240.725,61.253 261.566,52.844 " />
<polygon points="261.566,52.844 253.154,61.697 246.663,88.824 " />
<polygon points="246.663,88.824 246.600,80.403 231.759,52.844 " />
<polygon points="210.683,73.921 222.968,73.528 231.759,52.844 " />
<polygon points="231.759,52.844 232.071,65.052 246.663,88.824 " />
<polygon points="246.663,88.824 240.664,82.914 210.683,73.921 " />
<polygon points="261.567,124.804 252.601,116.395 231.760,124.805 " />
<polygon points="231.760,124.805 240.172,115.952 246.663,88.824 " />
<polygon points="246.663,88.824 246.726,97.246 261.567,124.804 " />
<polygon points="152.186,109.747 152.184,101.015 140.451,109.747 " />
<polygon points="168.645,110.775 168.645,99.943 152.186,109.747 " />
<polygon points="140.451,109.747 140.524,100.973 124.056,110.897 " />
<polygon points="152.186,109.747 152.184,101.015 140.451,109.747 " />
<polygon points="168.645,110.775 168.645,99.943 152.186,109.747 " />
<polygon points="140.451,109.747 140.524,100.973 124.056,110.897 " />
<polygon points="152.186,109.747 152.184,101.015 140.451,109.747 " />
<polygon points="168.645,110.775 168.645,99.943 152.186,109.747 " />
<polygon points="140.451,109.747 140.524,100.973 124.056,110.897 " />
<polygon points="152.186,109.747 152.184,101.015 140.451,109.747 " />
<polygon points="168.645,110.775 168.645,99.943 152.186,109.747 " />
<polygon points="140.451,109.747 140.524,100.973 124.056,110.897 " />
<polygon points="152.186,109.747 152.184,101.015 140.451,109.747 " />
<polygon points="168.645,110.775 168.645,99.943 152.186,109.747 " />
<polygon points="140.451,109.747 140.524,100.973 124.056,110.897 " />
<polygon points="152.186,109.747 152.184,101.015 140.451,109.747 " />
<polygon points="136.647,79.711 188.830,79.632 188.830,67.069 " />
<polygon points="188.830,79.630 136.647,79.710 136.647,67.147 " />
<polygon points="214.500,114.559 179.606,117.009 179.632,123.880 " />
<polygon points="148.105,117.272 113.112,114.559 113.157,126.592 " />
<polygon points="136.647,79.708 188.830,79.630 188.830,67.067 " />
<polygon points="179.606,117.009 148.105,117.272 148.131,124.143 " />
<polygon points="188.830,79.632 136.647,79.711 136.647,67.148 " />
<polygon points="188.830,79.628 136.647,79.708 136.647,67.145 " />
<polygon points="214.500,114.559 179.606,117.009 179.632,123.880 " />
<polygon points="148.105,117.272 113.112,114.559 113.157,126.592 " />
<polygon points="136.647,79.711 188.830,79.632 188.830,67.069 " />
<polygon points="148.131,124.143 179.632,123.880 179.606,117.009 " />
<polygon points="136.647,79.710 188.830,79.632 188.830,67.069 " />
<polygon points="188.830,79.632 136.647,79.711 136.647,67.148 " />
<polygon points="113.157,126.592 148.131,124.143 148.105,117.272 " />
<polygon points="179.632,123.880 214.546,126.591 214.500,114.559 " />
<polygon points="136.647,67.148 136.647,79.711 188.830,67.069 " />
<polygon points="188.830,67.067 188.830,79.630 136.647,67.147 " />
<polygon points="136.647,67.145 136.647,79.708 188.830,67.067 " />
<polygon points="188.830,67.069 188.830,79.632 136.647,67.148 " />
<polygon points="188.830,67.065 188.830,79.628 136.647,67.145 " />
<polygon points="136.647,67.148 136.647,79.711 188.830,67.069 " />
<polygon points="136.647,67.147 136.647,79.710 188.830,67.069 " />
<polygon points="188.830,67.069 188.830,79.632 136.647,67.148 " />
<polygon points="80.574,118.260 50.494,117.430 39.848,127.668 " />
<polygon points="50.494,117.430 65.892,75.912 65.738,65.164 " />
<polygon points="65.892,75.912 80.574,118.260 91.627,127.668 " />
<polygon points="17.703,38.110 39.559,17.428 39.848,2.661 " />
<polygon points="39.559,17.428 58.029,57.673 65.738,65.164 " />
<polygon points="58.029,57.673 17.703,38.110 3.235,39.274 " />
<polygon points="113.772,92.218 91.917,112.900 91.627,127.668 " />
<polygon points="91.917,112.900 73.447,72.655 65.738,65.164 " />
<polygon points="73.447,72.655 113.772,92.218 128.241,91.054 " />
<polygon points="118.833,50.328 118.003,80.407 128.241,91.054 " />
<polygon points="118.003,80.407 76.486,65.010 65.738,65.164 " />
<polygon points="76.486,65.010 118.833,50.328 128.241,39.274 " />
<polygon points="12.642,79.999 13.472,49.921 3.235,39.274 " />
<polygon points="13.472,49.921 54.989,65.318 65.738,65.164 " />
<polygon points="54.989,65.318 12.642,79.999 3.234,91.053 " />
<polygon points="92.791,17.130 113.473,38.985 128.241,39.274 " />
<polygon points="113.473,38.985 73.229,57.455 65.738,65.164 " />
<polygon points="73.229,57.455 92.791,17.130 91.627,2.661 " />
<polygon points="50.902,12.069 80.981,12.899 91.627,2.661 " />
<polygon points="80.981,12.899 65.584,54.416 65.738,65.164 " />
<polygon points="65.584,54.416 50.902,12.069 39.848,2.661 " />
<polygon points="38.684,113.199 18.002,91.343 3.234,91.053 " />
<polygon points="18.002,91.343 58.246,72.873 65.738,65.164 " />
<polygon points="58.246,72.873 38.684,113.199 39.848,127.668 " />
<polygon points="179.606,117.009 148.105,117.272 148.131,124.143 " />
<polygon points="214.500,114.559 179.606,117.009 179.632,123.880 " />
<polygon points="148.105,117.272 113.112,114.559 113.157,126.592 " />
<polygon points="179.606,117.009 148.105,117.272 148.131,124.143 " />
<polygon points="214.500,114.559 179.606,117.009 179.632,123.880 " />
<polygon points="148.105,117.272 113.112,114.559 113.157,126.592 " />
<polygon points="179.606,117.009 148.105,117.272 148.131,124.143 " />
<polygon points="214.500,114.559 179.606,117.009 179.632,123.880 " />
<polygon points="148.105,117.272 113.112,114.559 113.157,126.592 " />
<polygon points="179.606,117.009 148.105,117.272 148.131,124.143 " />
<polygon points="214.500,114.559 179.606,117.009 179.632,123.880 " />
<polygon points="148.105,117.272 113.112,114.559 113.157,126.592 " />
<polygon points="179.606,117.009 148.105,117.272 148.131,124.143 " />
<polygon points="214.500,114.559 179.606,117.009 179.632,123.880 " />
<polygon points="148.105,117.272 113.112,114.559 113.157,126.592 " />
<polygon points="179.606,117.009 148.105,117.272 148.131,124.143 " />
<polygon points="214.546,126.591 214.500,114.559 179.632,123.880 " />
<polygon points="148.131,124.143 148.105,117.272 113.157,126.592 " />
<polygon points="179.632,123.880 179.606,117.009 148.131,124.143 " />
<polygon points="214.546,126.591 214.500,114.559 179.632,123.880 " />
<polygon points="148.131,124.143 148.105,117.272 113.157,126.592 " />
<polygon points="148.105,117.272 148.131,124.143 179.606,117.009 " />
<polygon points="113.112,114.559 113.157,126.592 148.105,117.272 " />
<polygon points="179.606,117.009 179.632,123.880 214.500,114.559 " />
<polygon points="91.627,127.668 80.574,118.260 39.848,127.668 " />
<polygon points="39.848,127.668 50.494,117.430 65.738,65.164 " />
<polygon points="65.738,65.164 65.892,75.912 91.627,127.668 " />
<polygon points="3.235,39.274 17.703,38.110 39.848,2.661 " />
<polygon points="39.848,2.661 39.559,17.428 65.738,65.164 " />
<polygon points="65.738,65.164 58.029,57.673 3.235,39.274 " />
<polygon points="128.241,91.054 113.772,92.218 91.627,127.668 " />
<polygon points="91.627,127.668 91.917,112.900 65.738,65.164 " />
<polygon points="65.738,65.164 73.447,72.655 128.241,91.054 " />
<polygon points="128.241,39.274 118.833,50.328 128.241,91.054 " />
<polygon points="128.241,91.054 118.003,80.407 65.738,65.164 " />
<polygon points="65.738,65.164 76.486,65.010 128.241,39.274 " />
<polygon points="3.234,91.053 12.642,79.999 3.235,39.274 " />
<polygon points="3.235,39.274 13.472,49.921 65.738,65.164 " />
<polygon points="65.738,65.164 54.989,65.318 3.234,91.053 " />
<polygon points="91.627,2.661 92.791,17.130 128.241,39.274 " />
<polygon points="128.241,39.274 113.473,38.985 65.738,65.164 " />
<polygon points="65.738,65.164 73.229,57.455 91.627,2.661 " />
<polygon points="39.848,2.661 50.902,12.069 91.627,2.661 " />
<polygon points="91.627,2.661 80.981,12.899 65.738,65.164 " />
<polygon points="65.738,65.164 65.584,54.416 39.848,2.661 " />
<polygon points="39.848,127.668 38.684,113.199 3.234,91.053 " />
<polygon points="3.234,91.053 18.002,91.343 65.738,65.164 " />
<polygon points="65.738,65.164 58.246,72.873 39.848,127.668 " />
<polygon points="179.632,123.880 179.606,117.009 148.131,124.143 " />
<polygon points="214.546,126.591 214.500,114.559 179.632,123.880 " />
<polygon points="148.131,124.143 148.105,117.272 113.157,126.592 " />
<polygon points="179.632,123.880 179.606,117.009 148.131,124.143 " />
<polygon points="214.546,126.591 214.500,114.559 179.632,123.880 " />
<polygon points="148.131,124.143 148.105,117.272 113.157,126.592 " />
<polygon points="179.632,123.880 179.606,117.009 148.131,124.143 " />
<polygon points="214.546,126.591 214.500,114.559 179.632,123.880 " />
<polygon points="148.131,124.143 148.105,117.272 113.157,126.592 " />
<polygon points="179.632,123.880 179.606,117.009 148.131,124.143 " />
<polygon points="214.546,126.591 214.500,114.559 179.632,123.880 " />
<polygon points="148.131,124.143 148.105,117.272 113.157,126.592 " />
<polygon points="179.632,123.880 179.606,117.009 148.131,124.143 " />
<polygon points="214.546,126.591 214.500,114.559 179.632,123.880 " />
<polygon points="148.131,124.143 148.105,117.272 113.157,126.592 " />
<polygon points="179.632,123.880 179.606,117.009 148.131,124.143 " />
<polygon points="436.646,17.586 308.753,17.586 308.753,30.932 " />
<polygon points="279.555,142.168 267.605,121.923 267.605,287.803 " />
<polygon points="447.755,106.441 293.823,106.585 293.823,119.088 " />
<polygon points="435.059,142.168 420.885,142.168 421.954,271.781 " />
<polygon points="311.208,30.751 432.161,30.982 432.056,18.762 " />
<polygon points="319.169,505.651 332.149,505.651 333.156,295.847 " />
<polygon points="448.847,93.377 293.803,93.375 293.803,106.388 " />
<polygon points="407.218,142.168 395.190,142.168 395.165,271.781 " />
<polygon points="308.753,30.932 436.646,30.932 436.646,17.586 " />
<polygon points="421.954,271.781 420.885,142.168 409.936,142.168 " />
<polygon points="394.474,295.847 395.551,505.651 407.218,505.651 " />
<polygon points="371.074,505.651 383.722,505.651 382.645,295.847 " />
<polygon points="293.803,106.860 448.847,106.860 448.847,93.890 " />
<polygon points="357.376,295.847 357.313,505.651 368.265,505.651 " />
<polygon points="333.156,295.847 332.989,271.781 319.169,281.183 " />
<polygon points="448.488,121.923 435.059,142.168 436.124,271.781 " />
<polygon points="316.190,287.769 304.182,271.781 304.333,295.847 " />
<polygon points="304.333,295.847 303.376,505.651 316.190,505.651 " />
<polygon points="293.803,80.329 448.847,80.333 448.847,67.104 " />
<polygon points="267.605,505.651 278.976,505.651 280.754,295.847 " />
<polygon points="293.823,105.327 447.755,105.157 447.755,92.943 " />
<polygon points="436.142,295.847 436.951,505.651 448.488,505.651 " />
<polygon points="382.645,295.847 383.167,271.781 371.074,279.802 " />
<polygon points="280.754,295.847 280.807,271.781 267.605,287.803 " />
<polygon points="287.736,23.773 131.790,23.260 131.790,32.270 " />
<polygon points="293.803,93.375 448.847,93.377 448.847,80.333 " />
<polygon points="131.790,14.218 287.736,14.723 287.736,3.201 " />
<polygon points="433.272,44.755 310.805,44.755 294.476,58.736 " />
<polygon points="431.757,43.391 310.692,43.894 293.174,58.433 " />
<polygon points="308.161,58.736 436.660,58.736 448.747,44.755 " />
<polygon points="423.780,505.651 423.031,295.847 410.561,295.847 " />
<polygon points="447.755,68.378 293.823,67.908 293.823,80.682 " />
<polygon points="316.190,121.923 302.646,142.168 304.182,271.781 " />
<polygon points="368.265,280.866 357.345,271.781 357.376,295.847 " />
<polygon points="302.646,142.168 291.107,142.168 292.518,271.781 " />
<polygon points="293.823,106.585 447.755,106.441 447.755,93.755 " />
<polygon points="287.736,32.782 131.790,32.270 131.790,42.827 " />
<polygon points="447.755,105.157 293.823,105.327 293.823,118.342 " />
<polygon points="432.161,30.982 311.208,30.751 310.692,43.894 " />
<polygon points="436.646,30.932 308.753,30.932 294.476,44.755 " />
<polygon points="341.802,142.168 329.707,142.168 332.989,271.781 " />
<polygon points="291.107,142.168 279.555,142.168 280.807,271.781 " />
<polygon points="383.175,142.168 371.074,121.923 371.074,279.802 " />
<polygon points="311.183,18.531 432.056,18.762 449.290,4.562 " />
<polygon points="329.707,142.168 319.169,121.923 319.169,281.183 " />
<polygon points="353.824,142.168 341.802,142.168 344.899,271.781 " />
<polygon points="395.190,142.168 383.175,142.168 383.167,271.781 " />
<polygon points="448.488,287.703 436.124,271.781 436.142,295.847 " />
<polygon points="368.265,121.923 353.824,142.168 357.345,271.781 " />
<polygon points="293.823,93.053 447.755,92.943 447.755,80.625 " />
<polygon points="345.033,295.847 344.428,505.651 357.313,505.651 " />
<polygon points="447.755,68.589 293.823,67.637 293.823,80.015 " />
<polygon points="395.551,505.651 394.474,295.847 382.645,295.847 " />
<polygon points="293.803,93.891 448.847,93.890 448.847,80.448 " />
<polygon points="292.489,295.847 290.797,505.651 303.376,505.651 " />
<polygon points="448.847,67.276 293.803,67.531 293.803,80.708 " />
<polygon points="344.428,505.651 345.033,295.847 333.156,295.847 " />
<polygon points="131.790,23.260 287.736,23.773 287.736,14.723 " />
<polygon points="423.031,295.847 423.780,505.651 436.951,505.651 " />
<polygon points="293.823,93.346 447.755,93.755 447.755,81.091 " />
<polygon points="290.797,505.651 292.489,295.847 280.754,295.847 " />
<polygon points="436.646,30.932 308.753,30.932 310.805,44.755 " />
<polygon points="436.646,30.932 436.646,17.586 308.753,30.932 " />
<polygon points="280.807,271.781 279.555,142.168 267.605,287.803 " />
<polygon points="447.755,118.943 447.755,106.441 293.823,119.088 " />
<polygon points="436.124,271.781 435.059,142.168 421.954,271.781 " />
<polygon points="311.183,18.531 311.208,30.751 432.056,18.762 " />
<polygon points="319.169,281.183 319.169,505.651 333.156,295.847 " />
<polygon points="448.847,106.391 448.847,93.377 293.803,106.388 " />
<polygon points="407.218,271.781 407.218,142.168 395.165,271.781 " />
<polygon points="308.753,17.586 308.753,30.932 436.646,17.586 " />
<polygon points="410.995,271.781 421.954,271.781 409.936,142.168 " />
<polygon points="407.218,295.847 394.474,295.847 407.218,505.651 " />
<polygon points="371.074,279.802 371.074,505.651 382.645,295.847 " />
<polygon points="293.803,93.891 293.803,106.860 448.847,93.890 " />
<polygon points="368.265,280.866 357.376,295.847 368.265,505.651 " />
<polygon points="448.488,287.703 448.488,121.923 436.124,271.781 " />
<polygon points="316.190,287.769 304.333,295.847 316.190,505.651 " />
<polygon points="293.803,67.104 293.803,80.329 448.847,67.104 " />
<polygon points="267.605,287.803 267.605,505.651 280.754,295.847 " />
<polygon points="293.823,93.053 293.823,105.327 447.755,92.943 " />
<polygon points="448.488,287.703 436.142,295.847 448.488,505.651 " />
<polygon points="287.736,32.782 287.736,23.773 131.790,32.270 " />
<polygon points="293.803,80.329 293.803,93.375 448.847,80.333 " />
<polygon points="131.790,3.737 131.790,14.218 287.736,3.201 " />
<polygon points="448.621,58.736 433.272,44.755 294.476,58.736 " />
<polygon points="448.330,57.307 431.757,43.391 293.174,58.433 " />
<polygon points="294.476,44.755 308.161,58.736 448.747,44.755 " />
<polygon points="411.311,505.651 423.780,505.651 410.561,295.847 " />
<polygon points="447.755,81.091 447.755,68.378 293.823,80.682 " />
<polygon points="316.190,287.769 316.190,121.923 304.182,271.781 " />
<polygon points="304.182,271.781 302.646,142.168 292.518,271.781 " />
<polygon points="293.823,93.346 293.823,106.585 447.755,93.755 " />
<polygon points="287.736,42.827 287.736,32.782 131.790,42.827 " />
<polygon points="447.755,117.401 447.755,105.157 293.823,118.342 " />
<polygon points="431.757,43.391 432.161,30.982 310.692,43.894 " />
<polygon points="448.747,44.755 436.646,30.932 294.476,44.755 " />
<polygon points="344.899,271.781 341.802,142.168 332.989,271.781 " />
<polygon points="292.518,271.781 291.107,142.168 280.807,271.781 " />
<polygon points="383.167,271.781 383.175,142.168 371.074,279.802 " />
<polygon points="295.897,4.562 311.183,18.531 449.290,4.562 " />
<polygon points="332.989,271.781 329.707,142.168 319.169,281.183 " />
<polygon points="357.345,271.781 353.824,142.168 344.899,271.781 " />
<polygon points="395.165,271.781 395.190,142.168 383.167,271.781 " />
<polygon points="368.265,280.866 368.265,121.923 357.345,271.781 " />
<polygon points="293.823,80.015 293.823,93.053 447.755,80.625 " />
<polygon points="357.376,295.847 345.033,295.847 357.313,505.651 " />
<polygon points="447.755,80.625 447.755,68.589 293.823,80.015 " />
<polygon points="383.722,505.651 395.551,505.651 382.645,295.847 " />
<polygon points="293.803,80.708 293.803,93.891 448.847,80.448 " />
<polygon points="304.333,295.847 292.489,295.847 303.376,505.651 " />
<polygon points="448.847,80.448 448.847,67.276 293.803,80.708 " />
<polygon points="332.149,505.651 344.428,505.651 333.156,295.847 " />
<polygon points="131.790,14.218 131.790,23.260 287.736,14.723 " />
<polygon points="436.142,295.847 423.031,295.847 436.951,505.651 " />
<polygon points="293.823,80.682 293.823,93.346 447.755,81.091 " />
<polygon points="278.976,505.651 290.797,505.651 280.754,295.847 " />
<polygon points="433.272,44.755 436.646,30.932 310.805,44.755 " />
<polygon points="189.525,197.522 191.672,187.616 8.179,197.522 " />
<polygon points="191.672,187.616 9.658,187.632 8.179,197.522 " />
<polygon points="203.728,177.623 200.317,167.486 11.420,177.623 " />
<polygon points="200.317,167.486 8.179,167.486 11.420,177.623 " />
<polygon points="190.514,166.473 187.038,156.952 9.620,166.473 " />
<polygon points="187.038,156.952 7.391,156.952 9.620,166.473 " />
<polygon points="188.617,187.616 192.803,177.623 8.179,187.616 " />
<polygon points="192.803,177.623 9.827,177.682 8.179,187.616 " />
<polygon points="220.869,143.951 220.674,132.311 6.179,143.951 " />
<polygon points="220.674,132.311 5.149,132.353 6.179,143.951 " />
<polygon points="74.710,429.473 18.446,407.046 6.463,502.027 " />
<polygon points="147.665,393.126 94.261,429.903 83.796,502.044 " />
<polygon points="221.569,363.711 172.594,394.928 155.992,502.184 " />
<polygon points="89.373,239.808 127.147,243.460 126.456,207.892 " />
<polygon points="49.929,241.758 89.373,239.808 89.646,205.981 " />
<polygon points="89.617,322.457 42.417,323.207 4.696,360.466 " />
<polygon points="10.963,243.460 49.929,241.758 50.136,207.182 " />
<polygon points="261.809,270.450 261.809,151.046 250.467,149.770 " />
<polygon points="261.809,390.138 261.809,270.450 250.467,270.264 " />
<polygon points="261.809,506.870 261.809,390.138 250.467,389.952 " />
<polygon points="42.417,323.207 42.531,282.615 8.832,254.330 " />
<polygon points="42.531,282.615 88.656,281.857 149.206,254.947 " />
<polygon points="88.656,281.857 89.617,322.457 126.899,360.113 " />
<polygon points="83.398,502.027 74.710,429.473 6.463,502.027 " />
<polygon points="156.021,501.964 147.665,393.126 83.796,502.044 " />
<polygon points="238.455,501.669 221.569,363.711 155.992,502.184 " />
<polygon points="89.646,205.981 89.373,239.808 126.456,207.892 " />
<polygon points="50.136,207.182 49.929,241.758 89.646,205.981 " />
<polygon points="126.899,360.113 89.617,322.457 4.696,360.466 " />
<polygon points="12.445,207.720 10.963,243.460 50.136,207.182 " />
<polygon points="250.467,270.264 261.809,270.450 250.467,149.770 " />
<polygon points="250.467,389.952 261.809,390.138 250.467,270.264 " />
<polygon points="250.467,507.669 261.809,506.870 250.467,389.952 " />
<polygon points="4.696,360.466 42.417,323.207 8.832,254.330 " />
<polygon points="8.832,254.330 42.531,282.615 149.206,254.947 " />
<polygon points="149.206,254.947 88.656,281.857 126.899,360.113 " />
<polygon points="194.708,256.857 155.299,256.765 156.868,313.459 " />
<polygon points="221.578,253.890 194.708,256.857 198.381,313.058 " />
<polygon points="198.381,313.058 156.868,313.459 165.802,329.205 " />
<polygon points="200.611,230.476 162.758,236.271 155.299,256.765 " />
<polygon points="198.381,313.058 194.708,256.857 156.868,313.459 " />
<polygon points="220.169,310.747 221.578,253.890 198.381,313.058 " />
<polygon points="206.056,333.580 198.381,313.058 165.802,329.205 " />
<polygon points="194.708,256.857 200.611,230.476 155.299,256.765 " />
<polygon points="217.153,155.515 214.693,144.350 6.641,155.515 " />
<polygon points="214.693,144.350 5.446,144.360 6.641,155.515 " />
</g>
</svg>