<?xml version="1.0"?>
<!DOCTYPE svg PUBLIC "-//W3C//DTD SVG 1.1//EN" "http://www.w3.org/Graphics/SVG/1.1/DTD/svg11.dtd">
<svg width="256px" height="256px" viewBox="0 0 256 256" xmlns="http://www.w3.org/2000/svg" version="1.1">
<desc>UV-Map from Object: Plane. Exported from Blender3D with UV Exportscript</desc>
<rect x="0" y="0" width="256" height="256" fill="none" stroke="blue" stroke-width="1px" />
<g style="fill:#F2DAF2; stroke:black; stroke-width:1px;">
<polygon points="95.954,114.802 95.954,34.058 15.209,34.058 15.209,114.802 " />
<polygon points="15.209,34.058 95.954,34.058 95.233,23.548 14.488,23.548 " />
<polygon points="95.954,34.058 95.954,114.802 106.464,114.082 106.464,33.337 " />
<polygon points="95.954,114.802 15.209,114.802 15.930,125.313 96.674,125.313 " />
<polygon points="15.209,114.802 15.209,34.058 4.699,34.779 4.699,115.523 " />
<polygon points="101.497,220.687 101.497,128.192 9.002,128.192 9.002,220.687 " />
<polygon points="131.092,243.197 139.755,242.511 139.755,242.511 131.092,243.197 " />
<polygon points="138.846,11.966 138.839,3.132 130.103,3.138 130.110,11.972 " />
<polygon points="113.525,242.168 122.172,243.118 121.291,176.578 112.417,176.649 " />
<polygon points="112.417,176.649 121.291,176.578 121.583,119.108 112.867,119.476 " />
<polygon points="139.755,242.511 148.365,242.144 148.262,176.687 139.243,177.022 " />
<polygon points="139.243,177.022 148.262,176.687 147.735,119.543 138.873,119.489 " />
<polygon points="131.092,243.197 139.755,242.511 139.243,177.022 130.295,176.917 " />
<polygon points="130.295,176.917 139.243,177.022 138.873,119.489 130.136,119.065 " />
<polygon points="122.172,243.118 131.092,243.197 130.295,176.917 121.291,176.578 " />
<polygon points="121.291,176.578 130.295,176.917 130.136,119.065 121.583,119.108 " />
<polygon points="112.867,119.476 121.583,119.108 121.382,57.696 112.600,57.661 " />
<polygon points="112.600,57.661 121.382,57.696 121.362,11.988 112.602,12.011 " />
<polygon points="138.873,119.489 147.735,119.543 147.878,57.613 138.984,57.635 " />
<polygon points="138.984,57.635 147.878,57.613 147.778,11.960 138.846,11.966 " />
<polygon points="130.136,119.065 138.873,119.489 138.984,57.635 130.164,57.696 " />
<polygon points="130.164,57.696 138.984,57.635 138.846,11.966 130.110,11.972 " />
<polygon points="121.583,119.108 130.136,119.065 130.164,57.696 121.382,57.696 " />
<polygon points="121.382,57.696 130.164,57.696 130.110,11.972 121.362,11.988 " />
<polygon points="121.382,57.696 130.164,57.696 130.110,11.972 121.362,11.988 " />
<polygon points="121.583,119.108 130.136,119.065 130.164,57.696 121.382,57.696 " />
<polygon points="130.164,57.696 138.984,57.635 138.846,11.966 130.110,11.972 " />
<polygon points="130.136,119.065 138.873,119.489 138.984,57.635 130.164,57.696 " />
<polygon points="138.984,57.635 147.878,57.613 147.778,11.960 138.846,11.966 " />
<polygon points="138.873,119.489 147.735,119.543 147.878,57.613 138.984,57.635 " />
<polygon points="112.600,57.661 121.382,57.696 121.362,11.988 112.602,12.011 " />
<polygon points="112.867,119.476 121.583,119.108 121.382,57.696 112.600,57.661 " />
<polygon points="121.291,176.578 130.295,176.917 130.136,119.065 121.583,119.108 " />
<polygon points="122.172,243.118 131.092,243.197 130.295,176.917 121.291,176.578 " />
<polygon points="130.295,176.917 139.243,177.022 138.873,119.489 130.136,119.065 " />
<polygon points="131.092,243.197 139.755,242.511 139.243,177.022 130.295,176.917 " />
<polygon points="139.243,177.022 148.262,176.687 147.735,119.543 138.873,119.489 " />
<polygon points="139.755,242.511 148.365,242.144 148.262,176.687 139.243,177.022 " />
<polygon points="112.417,176.649 121.291,176.578 121.583,119.108 112.867,119.476 " />
<polygon points="113.525,242.168 122.172,243.118 121.291,176.578 112.417,176.649 " />
<polygon points="138.846,11.966 138.839,3.132 130.103,3.138 130.110,11.972 " />
<polygon points="131.164,253.035 139.866,253.026 139.755,242.511 131.092,243.197 " />
<polygon points="131.164,253.035 139.866,253.026 139.755,242.511 131.092,243.197 " />
<polygon points="138.846,11.966 138.839,3.132 130.103,3.138 130.110,11.972 " />
<polygon points="113.525,242.168 122.172,243.118 121.291,176.578 112.417,176.649 " />
<polygon points="112.417,176.649 121.291,176.578 121.583,119.108 112.867,119.476 " />
<polygon points="139.755,242.511 148.365,242.144 148.262,176.687 139.243,177.022 " />
<polygon points="139.243,177.022 148.262,176.687 147.735,119.543 138.873,119.489 " />
<polygon points="131.092,243.197 139.755,242.511 139.243,177.022 130.295,176.917 " />
<polygon points="130.295,176.917 139.243,177.022 138.873,119.489 130.136,119.065 " />
<polygon points="122.172,243.118 131.092,243.197 130.295,176.917 121.291,176.578 " />
<polygon points="121.291,176.578 130.295,176.917 130.136,119.065 121.583,119.108 " />
<polygon points="112.867,119.476 121.583,119.108 121.382,57.696 112.600,57.661 " />
<polygon points="112.600,57.661 121.382,57.696 121.362,11.988 112.602,12.011 " />
<polygon points="138.873,119.489 147.735,119.543 147.878,57.613 138.984,57.635 " />
<polygon points="138.984,57.635 147.878,57.613 147.778,11.960 138.846,11.966 " />
<polygon points="130.136,119.065 138.873,119.489 138.984,57.635 130.164,57.696 " />
<polygon points="130.164,57.696 138.984,57.635 138.846,11.966 130.110,11.972 " />
<polygon points="121.583,119.108 130.136,119.065 130.164,57.696 121.382,57.696 " />
<polygon points="121.382,57.696 130.164,57.696 130.110,11.972 121.362,11.988 " />
<polygon points="121.382,57.696 130.164,57.696 130.110,11.972 121.362,11.988 " />
<polygon points="121.583,119.108 130.136,119.065 130.164,57.696 121.382,57.696 " />
<polygon points="130.164,57.696 138.984,57.635 138.846,11.966 130.110,11.972 " />
<polygon points="130.136,119.065 138.873,119.489 138.984,57.635 130.164,57.696 " />
<polygon points="138.984,57.635 147.878,57.613 147.778,11.960 138.846,11.966 " />
<polygon points="138.873,119.489 147.735,119.543 147.878,57.613 138.984,57.635 " />
<polygon points="112.600,57.661 121.382,57.696 121.362,11.988 112.602,12.011 " />
<polygon points="112.867,119.476 121.583,119.108 121.382,57.696 112.600,57.661 " />
<polygon points="121.291,176.578 130.295,176.917 130.136,119.065 121.583,119.108 " />
<polygon points="122.172,243.118 131.092,243.197 130.295,176.917 121.291,176.578 " />
<polygon points="130.295,176.917 139.243,177.022 138.873,119.489 130.136,119.065 " />
<polygon points="131.092,243.197 139.755,242.511 139.243,177.022 130.295,176.917 " />
<polygon points="139.243,177.022 148.262,176.687 147.735,119.543 138.873,119.489 " />
<polygon points="139.755,242.511 148.365,242.144 148.262,176.687 139.243,177.022 " />
<polygon points="112.417,176.649 121.291,176.578 121.583,119.108 112.867,119.476 " />
<polygon points="113.525,242.168 122.172,243.118 121.291,176.578 112.417,176.649 " />
<polygon points="138.846,11.966 138.839,3.132 130.103,3.138 130.110,11.972 " />
<polygon points="131.164,253.035 139.866,253.026 139.755,242.511 131.092,243.197 " />
<polygon points="185.668,47.245 185.668,55.572 200.888,55.572 200.888,47.245 " />
<polygon points="200.888,226.843 185.668,226.843 185.668,234.972 200.888,234.972 " />
<polygon points="200.888,226.843 185.668,226.843 185.668,234.972 200.888,234.972 " />
<polygon points="185.668,47.245 185.668,55.572 200.888,55.572 200.888,47.245 " />
<polygon points="185.668,226.843 185.668,234.972 200.888,234.972 200.888,226.843 " />
<polygon points="200.888,47.245 185.668,47.245 185.668,55.572 200.888,55.572 " />
<polygon points="185.668,47.245 185.668,55.572 200.888,55.572 200.888,47.245 " />
<polygon points="200.888,226.843 185.668,226.843 185.668,234.972 200.888,234.972 " />
<polygon points="200.888,226.843 185.668,226.843 185.668,234.972 200.888,234.972 " />
<polygon points="185.668,47.245 185.668,55.572 200.888,55.572 200.888,47.245 " />
<polygon points="177.519,226.843 185.668,226.843 185.668,170.931 177.519,170.931 " />
<polygon points="177.519,170.931 185.668,170.931 185.668,112.286 177.519,112.286 " />
<polygon points="177.519,112.286 185.668,112.286 185.668,55.572 177.519,55.572 " />
<polygon points="162.252,226.843 177.519,226.843 177.519,170.931 162.252,170.931 " />
<polygon points="162.252,170.931 177.519,170.931 177.519,112.286 162.252,112.286 " />
<polygon points="162.252,112.286 177.519,112.286 177.519,55.572 162.252,55.572 " />
<polygon points="200.888,226.843 209.215,226.843 209.215,170.931 200.888,170.931 " />
<polygon points="200.888,170.931 209.215,170.931 209.215,112.286 200.888,112.286 " />
<polygon points="200.888,112.286 209.215,112.286 209.215,55.572 200.888,55.572 " />
<polygon points="185.668,226.843 200.888,226.843 200.888,170.931 185.668,170.931 " />
<polygon points="185.668,170.931 200.888,170.931 200.888,112.286 185.668,112.286 " />
<polygon points="185.668,112.286 200.888,112.286 200.888,55.572 185.668,55.572 " />
<polygon points="185.668,55.572 177.519,55.572 177.519,112.286 185.668,112.286 " />
<polygon points="185.668,112.286 177.519,112.286 177.519,170.931 185.668,170.931 " />
<polygon points="185.668,170.931 177.519,170.931 177.519,226.843 185.668,226.843 " />
<polygon points="200.888,55.572 185.668,55.572 185.668,112.286 200.888,112.286 " />
<polygon points="200.888,112.286 185.668,112.286 185.668,170.931 200.888,170.931 " />
<polygon points="200.888,170.931 185.668,170.931 185.668,226.843 200.888,226.843 " />
<polygon points="209.215,55.572 200.888,55.572 200.888,112.286 209.215,112.286 " />
<polygon points="209.215,112.286 200.888,112.286 200.888,170.931 209.215,170.931 " />
<polygon points="209.215,170.931 200.888,170.931 200.888,226.843 209.215,226.843 " />
<polygon points="177.519,55.572 162.252,55.572 162.252,112.286 177.519,112.286 " />
<polygon points="177.519,112.286 162.252,112.286 162.252,170.931 177.519,170.931 " />
<polygon points="177.519,170.931 162.252,170.931 162.252,226.843 177.519,226.843 " />
<polygon points="177.519,55.572 162.252,55.572 162.252,112.286 177.519,112.286 " />
<polygon points="177.519,112.286 162.252,112.286 162.252,170.931 177.519,170.931 " />
<polygon points="177.519,170.931 162.252,170.931 162.252,226.843 177.519,226.843 " />
<polygon points="209.215,55.572 200.888,55.572 200.888,112.286 209.215,112.286 " />
<polygon points="209.215,112.286 200.888,112.286 200.888,170.931 209.215,170.931 " />
<polygon points="209.215,170.931 200.888,170.931 200.888,226.843 209.215,226.843 " />
<polygon points="200.888,55.572 185.668,55.572 185.668,112.286 200.888,112.286 " />
<polygon points="200.888,112.286 185.668,112.286 185.668,170.931 200.888,170.931 " />
<polygon points="200.888,170.931 185.668,170.931 185.668,226.843 200.888,226.843 " />
<polygon points="185.668,55.572 177.519,55.572 177.519,112.286 185.668,112.286 " />
<polygon points="185.668,112.286 177.519,112.286 177.519,170.931 185.668,170.931 " />
<polygon points="185.668,170.931 177.519,170.931 177.519,226.843 185.668,226.843 " />
<polygon points="177.519,55.572 162.252,55.572 162.252,112.286 177.519,112.286 " />
<polygon points="177.519,112.286 162.252,112.286 162.252,170.931 177.519,170.931 " />
<polygon points="177.519,170.931 162.252,170.931 162.252,226.843 177.519,226.843 " />
<polygon points="209.215,55.572 200.888,55.572 200.888,112.286 209.215,112.286 " />
<polygon points="209.215,112.286 200.888,112.286 200.888,170.931 209.215,170.931 " />
<polygon points="209.215,170.931 200.888,170.931 200.888,226.843 209.215,226.843 " />
<polygon points="200.888,55.572 185.668,55.572 185.668,112.286 200.888,112.286 " />
<polygon points="200.888,112.286 185.668,112.286 185.668,170.931 200.888,170.931 " />
<polygon points="200.888,170.931 185.668,170.931 185.668,226.843 200.888,226.843 " />
<polygon points="185.668,55.572 177.519,55.572 177.519,112.286 185.668,112.286 " />
<polygon points="185.668,112.286 177.519,112.286 177.519,170.931 185.668,170.931 " />
<polygon points="185.668,170.931 177.519,170.931 177.519,226.843 185.668,226.843 " />
<polygon points="185.668,55.572 177.519,55.572 177.519,112.286 185.668,112.286 " />
<polygon points="185.668,112.286 177.519,112.286 177.519,170.931 185.668,170.931 " />
<polygon points="185.668,170.931 177.519,170.931 177.519,226.843 185.668,226.843 " />
<polygon points="200.888,55.572 185.668,55.572 185.668,112.286 200.888,112.286 " />
<polygon points="200.888,112.286 185.668,112.286 185.668,170.931 200.888,170.931 " />
<polygon points="200.888,170.931 185.668,170.931 185.668,226.843 200.888,226.843 " />
<polygon points="209.215,55.572 200.888,55.572 200.888,112.286 209.215,112.286 " />
<polygon points="209.215,112.286 200.888,112.286 200.888,170.931 209.215,170.931 " />
<polygon points="209.215,170.931 200.888,170.931 200.888,226.843 209.215,226.843 " />
<polygon points="177.519,55.572 162.252,55.572 162.252,112.286 177.519,112.286 " />
<polygon points="177.519,112.286 162.252,112.286 162.252,170.931 177.519,170.931 " />
<polygon points="177.519,170.931 162.252,170.931 162.252,226.843 177.519,226.843 " />
<polygon points="185.668,112.286 200.888,112.286 200.888,55.572 185.668,55.572 " />
<polygon points="185.668,170.931 200.888,170.931 200.888,112.286 185.668,112.286 " />
<polygon points="185.668,226.843 200.888,226.843 200.888,170.931 185.668,170.931 " />
<polygon points="200.888,112.286 209.215,112.286 209.215,55.572 200.888,55.572 " />
<polygon points="200.888,170.931 209.215,170.931 209.215,112.286 200.888,112.286 " />
<polygon points="200.888,226.843 209.215,226.843 209.215,170.931 200.888,170.931 " />
<polygon points="162.252,112.286 177.519,112.286 177.519,55.572 162.252,55.572 " />
<polygon points="162.252,170.931 177.519,170.931 177.519,112.286 162.252,112.286 " />
<polygon points="162.252,226.843 177.519,226.843 177.519,170.931 162.252,170.931 " />
<polygon points="177.519,112.286 185.668,112.286 185.668,55.572 177.519,55.572 " />
<polygon points="177.519,170.931 185.668,170.931 185.668,112.286 177.519,112.286 " />
<polygon points="177.519,226.843 185.668,226.843 185.668,170.931 177.519,170.931 " />
<polygon points="200.888,47.245 185.668,47.245 185.668,55.572 200.888,55.572 " />
<polygon points="185.668,226.843 185.668,234.972 200.888,234.972 200.888,226.843 " />
<polygon points="185.668,47.245 185.668,55.572 200.888,55.572 200.888,47.245 " />
<polygon points="177.519,55.572 177.519,112.286 185.668,112.286 185.668,55.572 " />
<polygon points="185.668,55.572 185.668,112.286 200.888,112.286 200.888,55.572 " />
<polygon points="200.888,55.572 200.888,112.286 209.215,112.286 209.215,55.572 " />
<polygon points="162.252,55.572 162.252,112.286 177.519,112.286 177.519,55.572 " />
<polygon points="162.252,112.286 162.252,170.931 177.519,170.931 177.519,112.286 " />
<polygon points="200.888,112.286 200.888,170.931 209.215,170.931 209.215,112.286 " />
<polygon points="185.668,112.286 185.668,170.931 200.888,170.931 200.888,112.286 " />
<polygon points="177.519,112.286 177.519,170.931 185.668,170.931 185.668,112.286 " />
<polygon points="177.519,170.931 177.519,226.843 185.668,226.843 185.668,170.931 " />
<polygon points="185.668,170.931 185.668,226.843 200.888,226.843 200.888,170.931 " />
<polygon points="200.888,170.931 200.888,226.843 209.215,226.843 209.215,170.931 " />
<polygon points="162.252,170.931 162.252,226.843 177.519,226.843 177.519,170.931 " />
<polygon points="185.668,226.843 185.668,234.972 200.888,234.972 200.888,226.843 " />
<polygon points="200.888,47.245 185.668,47.245 185.668,55.572 200.888,55.572 " />
<polygon points="185.668,226.843 185.668,234.972 200.888,234.972 200.888,226.843 " />
<polygon points="200.888,55.572 185.668,55.572 185.668,112.286 200.888,112.286 " />
<polygon points="200.888,112.286 185.668,112.286 185.668,170.931 200.888,170.931 " />
<polygon points="200.888,170.931 185.668,170.931 185.668,226.843 200.888,226.843 " />
<polygon points="209.215,55.572 200.888,55.572 200.888,112.286 209.215,112.286 " />
<polygon points="209.215,112.286 200.888,112.286 200.888,170.931 209.215,170.931 " />
<polygon points="209.215,170.931 200.888,170.931 200.888,226.843 209.215,226.843 " />
<polygon points="177.519,55.572 162.252,55.572 162.252,112.286 177.519,112.286 " />
<polygon points="177.519,112.286 162.252,112.286 162.252,170.931 177.519,170.931 " />
<polygon points="177.519,170.931 162.252,170.931 162.252,226.843 177.519,226.843 " />
<polygon points="185.668,55.572 177.519,55.572 177.519,112.286 185.668,112.286 " />
<polygon points="185.668,112.286 177.519,112.286 177.519,170.931 185.668,170.931 " />
<polygon points="185.668,170.931 177.519,170.931 177.519,226.843 185.668,226.843 " />
<polygon points="185.668,170.931 177.519,170.931 177.519,226.843 185.668,226.843 " />
<polygon points="185.668,112.286 177.519,112.286 177.519,170.931 185.668,170.931 " />
<polygon points="185.668,55.572 177.519,55.572 177.519,112.286 185.668,112.286 " />
<polygon points="177.519,170.931 162.252,170.931 162.252,226.843 177.519,226.843 " />
<polygon points="177.519,112.286 162.252,112.286 162.252,170.931 177.519,170.931 " />
<polygon points="177.519,55.572 162.252,55.572 162.252,112.286 177.519,112.286 " />
<polygon points="209.215,170.931 200.888,170.931 200.888,226.843 209.215,226.843 " />
<polygon points="209.215,112.286 200.888,112.286 200.888,170.931 209.215,170.931 " />
<polygon points="209.215,55.572 200.888,55.572 200.888,112.286 209.215,112.286 " />
<polygon points="200.888,170.931 185.668,170.931 185.668,226.843 200.888,226.843 " />
<polygon points="200.888,112.286 185.668,112.286 185.668,170.931 200.888,170.931 " />
<polygon points="200.888,55.572 185.668,55.572 185.668,112.286 200.888,112.286 " />
<polygon points="185.668,226.843 185.668,234.972 200.888,234.972 200.888,226.843 " />
<polygon points="200.888,47.245 185.668,47.245 185.668,55.572 200.888,55.572 " />
<polygon points="237.893,30.179 244.518,30.179 244.518,36.597 237.893,36.597 " />
<polygon points="244.518,36.597 244.518,30.179 237.893,30.179 237.893,36.597 " />
<polygon points="237.893,144.374 237.893,198.718 231.013,198.718 231.013,144.374 " />
<polygon points="237.893,198.718 237.893,252.082 231.013,252.082 231.013,198.718 " />
<polygon points="244.518,144.374 244.518,198.718 237.893,198.718 237.893,144.374 " />
<polygon points="244.518,198.718 244.518,252.082 237.893,252.082 237.893,198.718 " />
<polygon points="251.849,144.374 251.849,198.718 244.518,198.718 244.518,144.374 " />
<polygon points="251.849,198.718 251.849,252.082 244.518,252.082 244.518,198.718 " />
<polygon points="231.013,144.374 231.013,198.718 224.091,198.718 224.091,144.374 " />
<polygon points="231.013,198.718 231.013,252.082 224.091,252.082 224.091,198.718 " />
<polygon points="237.893,36.597 237.893,90.113 231.013,90.113 231.013,36.597 " />
<polygon points="237.893,90.113 237.893,144.374 231.013,144.374 231.013,90.113 " />
<polygon points="244.518,36.597 244.518,90.113 237.893,90.113 237.893,36.597 " />
<polygon points="244.518,90.113 244.518,144.374 237.893,144.374 237.893,90.113 " />
<polygon points="251.849,36.597 251.849,90.113 244.518,90.113 244.518,36.597 " />
<polygon points="251.849,90.113 251.849,144.374 244.518,144.374 244.518,90.113 " />
<polygon points="231.013,36.597 231.013,90.113 224.091,90.113 224.091,36.597 " />
<polygon points="231.013,90.113 231.013,144.374 224.091,144.374 224.091,90.113 " />
<polygon points="231.013,90.113 224.091,90.113 224.091,144.374 231.013,144.374 " />
<polygon points="231.013,36.597 224.091,36.597 224.091,90.113 231.013,90.113 " />
<polygon points="251.849,90.113 244.518,90.113 244.518,144.374 251.849,144.374 " />
<polygon points="251.849,36.597 244.518,36.597 244.518,90.113 251.849,90.113 " />
<polygon points="244.518,90.113 237.893,90.113 237.893,144.374 244.518,144.374 " />
<polygon points="244.518,36.597 237.893,36.597 237.893,90.113 244.518,90.113 " />
<polygon points="237.893,90.113 231.013,90.113 231.013,144.374 237.893,144.374 " />
<polygon points="237.893,36.597 231.013,36.597 231.013,90.113 237.893,90.113 " />
<polygon points="231.013,198.718 224.091,198.718 224.091,252.082 231.013,252.082 " />
<polygon points="231.013,144.374 224.091,144.374 224.091,198.718 231.013,198.718 " />
<polygon points="251.849,198.718 244.518,198.718 244.518,252.082 251.849,252.082 " />
<polygon points="251.849,144.374 244.518,144.374 244.518,198.718 251.849,198.718 " />
<polygon points="244.518,198.718 237.893,198.718 237.893,252.082 244.518,252.082 " />
<polygon points="244.518,144.374 237.893,144.374 237.893,198.718 244.518,198.718 " />
<polygon points="237.893,198.718 231.013,198.718 231.013,252.082 237.893,252.082 " />
<polygon points="237.893,144.374 231.013,144.374 231.013,198.718 237.893,198.718 " />
<polygon points="237.893,36.597 244.518,36.597 244.518,30.179 237.893,30.179 " />
<polygon points="237.893,30.179 237.893,36.597 244.518,36.597 244.518,30.179 " />
<polygon points="251.823,9.428 251.823,3.525 225.147,3.525 225.147,9.428 " />
<polygon points="225.147,9.428 225.147,3.525 198.180,3.525 198.180,9.428 " />
<polygon points="251.823,15.282 251.823,9.428 225.147,9.428 225.147,15.282 " />
<polygon points="225.147,15.282 225.147,9.428 198.180,9.428 198.180,15.282 " />
<polygon points="251.823,21.162 251.823,15.282 225.147,15.282 225.147,21.162 " />
<polygon points="225.147,21.162 225.147,15.282 198.180,15.282 198.180,21.162 " />
<polygon points="251.823,21.162 225.147,21.162 225.147,27.064 251.823,27.064 " />
<polygon points="225.147,21.162 198.180,21.162 198.180,27.064 225.147,27.064 " />
<polygon points="225.147,21.162 198.180,21.162 198.180,27.064 225.147,27.064 " />
<polygon points="251.823,21.162 225.147,21.162 225.147,27.064 251.823,27.064 " />
<polygon points="225.147,21.162 225.147,15.282 198.180,15.282 198.180,21.162 " />
<polygon points="251.823,21.162 251.823,15.282 225.147,15.282 225.147,21.162 " />
<polygon points="225.147,15.282 225.147,9.428 198.180,9.428 198.180,15.282 " />
<polygon points="251.823,15.282 251.823,9.428 225.147,9.428 225.147,15.282 " />
<polygon points="225.147,9.428 225.147,3.525 198.180,3.525 198.180,9.428 " />
<polygon points="251.823,9.428 251.823,3.525 225.147,3.525 225.147,9.428 " />
<polygon points="251.823,9.428 251.823,3.525 225.147,3.525 225.147,9.428 " />
<polygon points="225.147,9.428 225.147,3.525 198.180,3.525 198.180,9.428 " />
<polygon points="251.823,15.282 251.823,9.428 225.147,9.428 225.147,15.282 " />
<polygon points="225.147,15.282 225.147,9.428 198.180,9.428 198.180,15.282 " />
<polygon points="251.823,21.162 251.823,15.282 225.147,15.282 225.147,21.162 " />
<polygon points="225.147,21.162 225.147,15.282 198.180,15.282 198.180,21.162 " />
<polygon points="251.823,21.162 225.147,21.162 225.147,27.064 251.823,27.064 " />
<polygon points="225.147,21.162 198.180,21.162 198.180,27.064 225.147,27.064 " />
<polygon points="225.147,21.162 198.180,21.162 198.180,27.064 225.147,27.064 " />
<polygon points="251.823,21.162 225.147,21.162 225.147,27.064 251.823,27.064 " />
<polygon points="225.147,21.162 225.147,15.282 198.180,15.282 198.180,21.162 " />
<polygon points="251.823,21.162 251.823,15.282 225.147,15.282 225.147,21.162 " />
<polygon points="225.147,15.282 225.147,9.428 198.180,9.428 198.180,15.282 " />
<polygon points="251.823,15.282 251.823,9.428 225.147,9.428 225.147,15.282 " />
<polygon points="225.147,9.428 225.147,3.525 198.180,3.525 198.180,9.428 " />
<polygon points="251.823,9.428 251.823,3.525 225.147,3.525 225.147,9.428 " />
<polygon points="251.823,9.428 251.823,3.525 225.147,3.525 225.147,9.428 " />
<polygon points="225.147,9.428 225.147,3.525 198.180,3.525 198.180,9.428 " />
<polygon points="251.823,15.282 251.823,9.428 225.147,9.428 225.147,15.282 " />
<polygon points="225.147,15.282 225.147,9.428 198.180,9.428 198.180,15.282 " />
<polygon points="251.823,21.162 251.823,15.282 225.147,15.282 225.147,21.162 " />
<polygon points="225.147,21.162 225.147,15.282 198.180,15.282 198.180,21.162 " />
<polygon points="251.823,21.162 225.147,21.162 225.147,27.064 251.823,27.064 " />
<polygon points="225.147,21.162 198.180,21.162 198.180,27.064 225.147,27.064 " />
<polygon points="225.147,21.162 198.180,21.162 198.180,27.064 225.147,27.064 " />
<polygon points="251.823,21.162 225.147,21.162 225.147,27.064 251.823,27.064 " />
<polygon points="225.147,21.162 225.147,15.282 198.180,15.282 198.180,21.162 " />
<polygon points="251.823,21.162 251.823,15.282 225.147,15.282 225.147,21.162 " />
<polygon points="225.147,15.282 225.147,9.428 198.180,9.428 198.180,15.282 " />
<polygon points="251.823,15.282 251.823,9.428 225.147,9.428 225.147,15.282 " />
<polygon points="225.147,9.428 225.147,3.525 198.180,3.525 198.180,9.428 " />
<polygon points="251.823,9.428 251.823,3.525 225.147,3.525 225.147,9.428 " />
<polygon points="251.823,9.428 251.823,3.525 225.147,3.525 225.147,9.428 " />
<polygon points="225.147,9.428 225.147,3.525 198.180,3.525 198.180,9.428 " />
<polygon points="251.823,15.282 251.823,9.428 225.147,9.428 225.147,15.282 " />
<polygon points="225.147,15.282 225.147,9.428 198.180,9.428 198.180,15.282 " />
<polygon points="251.823,21.162 251.823,15.282 225.147,15.282 225.147,21.162 " />
<polygon points="225.147,21.162 225.147,15.282 198.180,15.282 198.180,21.162 " />
<polygon points="251.823,21.162 225.147,21.162 225.147,27.064 251.823,27.064 " />
<polygon points="225.147,21.162 198.180,21.162 198.180,27.064 225.147,27.064 " />
<polygon points="225.147,21.162 198.180,21.162 198.180,27.064 225.147,27.064 " />
<polygon points="251.823,21.162 225.147,21.162 225.147,27.064 251.823,27.064 " />
<polygon points="225.147,21.162 225.147,15.282 198.180,15.282 198.180,21.162 " />
<polygon points="251.823,21.162 251.823,15.282 225.147,15.282 225.147,21.162 " />
<polygon points="225.147,15.282 225.147,9.428 198.180,9.428 198.180,15.282 " />
<polygon points="251.823,15.282 251.823,9.428 225.147,9.428 225.147,15.282 " />
<polygon points="225.147,9.428 225.147,3.525 198.180,3.525 198.180,9.428 " />
<polygon points="251.823,9.428 251.823,3.525 225.147,3.525 225.147,9.428 " />
<polygon points="251.823,9.428 251.823,3.525 225.147,3.525 225.147,9.428 " />
<polygon points="225.147,9.428 225.147,3.525 198.180,3.525 198.180,9.428 " />
<polygon points="251.823,15.282 251.823,9.428 225.147,9.428 225.147,15.282 " />
<polygon points="225.147,15.282 225.147,9.428 198.180,9.428 198.180,15.282 " />
<polygon points="251.823,21.162 251.823,15.282 225.147,15.282 225.147,21.162 " />
<polygon points="225.147,21.162 225.147,15.282 198.180,15.282 198.180,21.162 " />
<polygon points="251.823,21.162 225.147,21.162 225.147,27.064 251.823,27.064 " />
<polygon points="225.147,21.162 198.180,21.162 198.180,27.064 225.147,27.064 " />
<polygon points="225.147,21.162 198.180,21.162 198.180,27.064 225.147,27.064 " />
<polygon points="251.823,21.162 225.147,21.162 225.147,27.064 251.823,27.064 " />
<polygon points="225.147,21.162 225.147,15.282 198.180,15.282 198.180,21.162 " />
<polygon points="251.823,21.162 251.823,15.282 225.147,15.282 225.147,21.162 " />
<polygon points="225.147,15.282 225.147,9.428 198.180,9.428 198.180,15.282 " />
<polygon points="251.823,15.282 251.823,9.428 225.147,9.428 225.147,15.282 " />
<polygon points="225.147,9.428 225.147,3.525 198.180,3.525 198.180,9.428 " />
<polygon points="251.823,9.428 251.823,3.525 225.147,3.525 225.147,9.428 " />
</g>
</svg>